<mxfile host="Electron" modified="2023-11-10T09:07:20.077Z" agent="Mozilla/5.0 (Macintosh; Intel Mac OS X 10_15_7) AppleWebKit/537.36 (KHTML, like Gecko) draw.io/22.0.3 Chrome/114.0.5735.289 Electron/25.8.4 Safari/537.36" etag="XDTCPmbucvb8IFlU1mhL" version="22.0.3" type="device">
  <diagram name="第 1 页" id="R43AcX8REsA555mDAFBC">
    <mxGraphModel dx="1026" dy="658" grid="1" gridSize="10" guides="1" tooltips="1" connect="1" arrows="1" fold="1" page="1" pageScale="1" pageWidth="827" pageHeight="1169" math="0" shadow="0">
      <root>
        <mxCell id="0" />
        <mxCell id="1" parent="0" />
        <mxCell id="nvIC63uR-ovGKBUbHVNu-3" value="" style="edgeStyle=orthogonalEdgeStyle;rounded=0;orthogonalLoop=1;jettySize=auto;html=1;fontSize=24;" edge="1" parent="1" source="nvIC63uR-ovGKBUbHVNu-1" target="nvIC63uR-ovGKBUbHVNu-2">
          <mxGeometry relative="1" as="geometry" />
        </mxCell>
        <mxCell id="nvIC63uR-ovGKBUbHVNu-1" value="&lt;span style=&quot;font-size: 24px;&quot;&gt;1&lt;/span&gt;" style="rounded=0;whiteSpace=wrap;html=1;fontSize=24;" vertex="1" parent="1">
          <mxGeometry width="80" height="60" as="geometry" />
        </mxCell>
        <mxCell id="nvIC63uR-ovGKBUbHVNu-5" value="" style="edgeStyle=orthogonalEdgeStyle;rounded=0;orthogonalLoop=1;jettySize=auto;html=1;fontSize=24;" edge="1" parent="1" source="nvIC63uR-ovGKBUbHVNu-2" target="nvIC63uR-ovGKBUbHVNu-4">
          <mxGeometry relative="1" as="geometry" />
        </mxCell>
        <mxCell id="nvIC63uR-ovGKBUbHVNu-2" value="&lt;span style=&quot;font-size: 24px;&quot;&gt;2&lt;/span&gt;" style="rounded=0;whiteSpace=wrap;html=1;fontSize=24;" vertex="1" parent="1">
          <mxGeometry x="160" width="80" height="60" as="geometry" />
        </mxCell>
        <mxCell id="nvIC63uR-ovGKBUbHVNu-35" value="" style="edgeStyle=orthogonalEdgeStyle;rounded=0;orthogonalLoop=1;jettySize=auto;html=1;" edge="1" parent="1" source="nvIC63uR-ovGKBUbHVNu-4" target="nvIC63uR-ovGKBUbHVNu-34">
          <mxGeometry relative="1" as="geometry" />
        </mxCell>
        <mxCell id="nvIC63uR-ovGKBUbHVNu-4" value="&lt;span style=&quot;font-size: 24px;&quot;&gt;3&lt;/span&gt;" style="rounded=0;whiteSpace=wrap;html=1;fontSize=24;" vertex="1" parent="1">
          <mxGeometry x="320" width="80" height="60" as="geometry" />
        </mxCell>
        <mxCell id="nvIC63uR-ovGKBUbHVNu-8" value="" style="edgeStyle=orthogonalEdgeStyle;rounded=0;orthogonalLoop=1;jettySize=auto;html=1;fontSize=24;" edge="1" parent="1" source="nvIC63uR-ovGKBUbHVNu-9" target="nvIC63uR-ovGKBUbHVNu-11">
          <mxGeometry relative="1" as="geometry" />
        </mxCell>
        <mxCell id="nvIC63uR-ovGKBUbHVNu-9" value="&lt;span style=&quot;font-size: 24px;&quot;&gt;&#39;a&#39;&lt;/span&gt;" style="rounded=0;whiteSpace=wrap;html=1;fontSize=24;" vertex="1" parent="1">
          <mxGeometry y="80" width="80" height="60" as="geometry" />
        </mxCell>
        <mxCell id="nvIC63uR-ovGKBUbHVNu-10" value="" style="edgeStyle=orthogonalEdgeStyle;rounded=0;orthogonalLoop=1;jettySize=auto;html=1;fontSize=24;" edge="1" parent="1" source="nvIC63uR-ovGKBUbHVNu-11" target="nvIC63uR-ovGKBUbHVNu-13">
          <mxGeometry relative="1" as="geometry" />
        </mxCell>
        <mxCell id="nvIC63uR-ovGKBUbHVNu-11" value="&lt;span style=&quot;font-size: 24px;&quot;&gt;&#39;b&#39;&lt;/span&gt;" style="rounded=0;whiteSpace=wrap;html=1;fontSize=24;" vertex="1" parent="1">
          <mxGeometry x="160" y="80" width="80" height="60" as="geometry" />
        </mxCell>
        <mxCell id="nvIC63uR-ovGKBUbHVNu-12" value="" style="edgeStyle=orthogonalEdgeStyle;rounded=0;orthogonalLoop=1;jettySize=auto;html=1;fontSize=24;" edge="1" parent="1" source="nvIC63uR-ovGKBUbHVNu-13" target="nvIC63uR-ovGKBUbHVNu-14">
          <mxGeometry relative="1" as="geometry" />
        </mxCell>
        <mxCell id="nvIC63uR-ovGKBUbHVNu-13" value="&lt;span style=&quot;font-size: 24px;&quot;&gt;&#39;c&#39;&lt;/span&gt;" style="rounded=0;whiteSpace=wrap;html=1;fontSize=24;" vertex="1" parent="1">
          <mxGeometry x="320" y="80" width="80" height="60" as="geometry" />
        </mxCell>
        <mxCell id="nvIC63uR-ovGKBUbHVNu-37" value="" style="edgeStyle=orthogonalEdgeStyle;rounded=0;orthogonalLoop=1;jettySize=auto;html=1;" edge="1" parent="1" source="nvIC63uR-ovGKBUbHVNu-14" target="nvIC63uR-ovGKBUbHVNu-36">
          <mxGeometry relative="1" as="geometry" />
        </mxCell>
        <mxCell id="nvIC63uR-ovGKBUbHVNu-14" value="&lt;span style=&quot;font-size: 24px;&quot;&gt;&#39;d&#39;&lt;/span&gt;" style="rounded=0;whiteSpace=wrap;html=1;fontSize=24;" vertex="1" parent="1">
          <mxGeometry x="480" y="80" width="80" height="60" as="geometry" />
        </mxCell>
        <mxCell id="nvIC63uR-ovGKBUbHVNu-27" value="" style="edgeStyle=orthogonalEdgeStyle;rounded=0;orthogonalLoop=1;jettySize=auto;html=1;fontSize=24;" edge="1" parent="1" source="nvIC63uR-ovGKBUbHVNu-28" target="nvIC63uR-ovGKBUbHVNu-30">
          <mxGeometry relative="1" as="geometry" />
        </mxCell>
        <mxCell id="nvIC63uR-ovGKBUbHVNu-28" value="&lt;span style=&quot;font-size: 24px;&quot;&gt;(1, &#39;a&#39;)&lt;/span&gt;" style="rounded=0;whiteSpace=wrap;html=1;fontSize=24;" vertex="1" parent="1">
          <mxGeometry y="180" width="80" height="60" as="geometry" />
        </mxCell>
        <mxCell id="nvIC63uR-ovGKBUbHVNu-29" value="" style="edgeStyle=orthogonalEdgeStyle;rounded=0;orthogonalLoop=1;jettySize=auto;html=1;fontSize=24;" edge="1" parent="1" source="nvIC63uR-ovGKBUbHVNu-30" target="nvIC63uR-ovGKBUbHVNu-32">
          <mxGeometry relative="1" as="geometry" />
        </mxCell>
        <mxCell id="nvIC63uR-ovGKBUbHVNu-30" value="&lt;span style=&quot;font-size: 24px;&quot;&gt;(2, &#39;b&#39;)&lt;/span&gt;" style="rounded=0;whiteSpace=wrap;html=1;fontSize=24;" vertex="1" parent="1">
          <mxGeometry x="160" y="180" width="80" height="60" as="geometry" />
        </mxCell>
        <mxCell id="nvIC63uR-ovGKBUbHVNu-31" value="" style="edgeStyle=orthogonalEdgeStyle;rounded=0;orthogonalLoop=1;jettySize=auto;html=1;fontSize=24;" edge="1" parent="1" source="nvIC63uR-ovGKBUbHVNu-32" target="nvIC63uR-ovGKBUbHVNu-33">
          <mxGeometry relative="1" as="geometry" />
        </mxCell>
        <mxCell id="nvIC63uR-ovGKBUbHVNu-32" value="&lt;span style=&quot;font-size: 24px;&quot;&gt;(3, &#39;c&#39;)&lt;/span&gt;" style="rounded=0;whiteSpace=wrap;html=1;fontSize=24;" vertex="1" parent="1">
          <mxGeometry x="320" y="180" width="80" height="60" as="geometry" />
        </mxCell>
        <mxCell id="nvIC63uR-ovGKBUbHVNu-33" value="&lt;span style=&quot;font-size: 24px;&quot;&gt;Nil&lt;/span&gt;" style="rounded=0;whiteSpace=wrap;html=1;fontSize=24;" vertex="1" parent="1">
          <mxGeometry x="480" y="180" width="80" height="60" as="geometry" />
        </mxCell>
        <mxCell id="nvIC63uR-ovGKBUbHVNu-34" value="Nil" style="rounded=0;whiteSpace=wrap;html=1;fontSize=24;" vertex="1" parent="1">
          <mxGeometry x="480" width="80" height="60" as="geometry" />
        </mxCell>
        <mxCell id="nvIC63uR-ovGKBUbHVNu-36" value="&lt;span style=&quot;font-size: 24px;&quot;&gt;Nil&lt;/span&gt;" style="rounded=0;whiteSpace=wrap;html=1;fontSize=24;" vertex="1" parent="1">
          <mxGeometry x="640" y="80" width="80" height="60" as="geometry" />
        </mxCell>
      </root>
    </mxGraphModel>
  </diagram>
</mxfile>
